<?xml version="1.0" encoding="UTF-8"?>
<svg version="1.1" xmlns="http://www.w3.org/2000/svg" width="361" height="287">
<path d="M0 0 C119.13 0 238.26 0 361 0 C361 94.71 361 189.42 361 287 C241.87 287 122.74 287 0 287 C0 192.29 0 97.58 0 0 Z " fill="#5CE1E5" transform="translate(0,0)"/>
<path d="M0 0 C34.98 0 69.96 0 106 0 C106 13.86 106 27.72 106 42 C104.35 42.33 102.7 42.66 101 43 C100.32923511 40.23010036 99.66323683 37.45920258 99 34.6875 C98.80921875 33.90181641 98.6184375 33.11613281 98.421875 32.30664062 C98.24140625 31.54931641 98.0609375 30.79199219 97.875 30.01171875 C97.70742187 29.31522217 97.53984375 28.61872559 97.3671875 27.90112305 C97 26 97 26 97 23 C96.34 23 95.68 23 95 23 C95 21.68 95 20.36 95 19 C94.34 19 93.68 19 93 19 C93 17.68 93 16.36 93 15 C92.34 15 91.68 15 91 15 C90.08121769 13.93198872 89.21391213 12.81932837 88.375 11.6875 C83.76712281 6.17808162 78.70426971 5.0622687 71.734375 4.4296875 C70.84459961 4.34702637 69.95482422 4.26436523 69.03808594 4.17919922 C68.36551758 4.12006348 67.69294922 4.06092773 67 4 C66.96707035 18.12567137 66.974529 32.25082704 67.02846622 46.37644482 C67.05233136 52.93544962 67.06324296 59.49394568 67.04467773 66.05297852 C67.02723918 72.38158609 67.04366145 78.70927901 67.08367729 85.03777504 C67.09297963 87.45349868 67.09002963 89.86930125 67.07469368 92.28499413 C67.0553083 95.66652667 67.0792762 99.04515857 67.11352539 102.42651367 C67.0977092 103.42776779 67.08189301 104.42902191 67.06559753 105.46061707 C67.08864071 110.49492872 67.08864071 110.49492872 69.47897148 114.73311806 C73.50348154 117.76071131 77.01159702 118.69458757 82 119 C82 119.99 82 120.98 82 122 C61.87 122 41.74 122 21 122 C21 121.01 21 120.02 21 119 C22.22976562 118.83564453 22.22976562 118.83564453 23.484375 118.66796875 C24.56203125 118.50941406 25.6396875 118.35085937 26.75 118.1875 C27.81734375 118.03667969 28.8846875 117.88585937 29.984375 117.73046875 C33.10253152 116.975164 34.70720617 116.21243891 37 114 C37.93286372 111.20140883 38.13445436 109.47291857 38.15821838 106.57710266 C38.1680072 105.67266418 38.17779602 104.76822571 38.18788147 103.83638 C38.19363693 102.84663681 38.1993924 101.85689362 38.20532227 100.8371582 C38.21522186 99.79308807 38.22512146 98.74901794 38.23532104 97.67330933 C38.26695585 94.21582318 38.2917014 90.75832329 38.31640625 87.30078125 C38.33697406 84.90609883 38.35797048 82.51142005 38.37937927 80.116745 C38.43461778 73.80881703 38.48401926 67.5008562 38.53222656 61.19287109 C38.58242856 54.75810821 38.63812142 48.32339315 38.69335938 41.88867188 C38.80096273 29.25915569 38.90258929 16.6295987 39 4 C36.93643105 4.2840051 34.8741715 4.57753352 32.8125 4.875 C31.66394531 5.03742188 30.51539063 5.19984375 29.33203125 5.3671875 C23.55531247 6.46429001 18.90722294 8.5076853 15 13 C9.06024767 22.12068568 6.6177301 32.57541109 4 43 C2.68 43 1.36 43 0 43 C0 28.81 0 14.62 0 0 Z " fill="#FCFEFE" transform="translate(130,95)"/>
<path d="M0 0 C34.98 0 69.96 0 106 0 C106 13.86 106 27.72 106 42 C104.35 42.33 102.7 42.66 101 43 C100.32923511 40.23010036 99.66323683 37.45920258 99 34.6875 C98.80921875 33.90181641 98.6184375 33.11613281 98.421875 32.30664062 C98.24140625 31.54931641 98.0609375 30.79199219 97.875 30.01171875 C97.70742187 29.31522217 97.53984375 28.61872559 97.3671875 27.90112305 C97 26 97 26 97 23 C96.34 23 95.68 23 95 23 C95 21.68 95 20.36 95 19 C94.34 19 93.68 19 93 19 C93 17.68 93 16.36 93 15 C92.34 15 91.68 15 91 15 C90.08121769 13.93198872 89.21391213 12.81932837 88.375 11.6875 C82.54524993 4.71714665 76.03846104 4.9038461 67 4 C67 37.66 67 71.32 67 106 C66.67 106 66.34 106 66 106 C65.67 71.68 65.34 37.36 65 2 C56.75 2 48.5 2 40 2 C40.01571045 7.06565308 40.01571045 7.06565308 40.03173828 12.23364258 C40.06483174 23.37359013 40.08695116 34.51353981 40.10362434 45.65352345 C40.11394156 52.40974748 40.12801036 59.16592497 40.15087891 65.92211914 C40.17292491 72.4384055 40.18455866 78.95466161 40.18975449 85.47098351 C40.19345874 87.96095225 40.2006919 90.45091825 40.21146011 92.94086647 C40.22591215 96.42002783 40.22798057 99.89898743 40.22705078 103.37817383 C40.23424133 104.41467072 40.24143188 105.4511676 40.24884033 106.51907349 C40.246091 107.46558273 40.24334167 108.41209198 40.24050903 109.38728333 C40.24235262 110.21044446 40.24419621 111.03360559 40.24609566 111.88171101 C40 114 40 114 38 117 C37.34 117 36.68 117 36 117 C36 117.66 36 118.32 36 119 C33.69 119 31.38 119 29 119 C29.86625 118.5978125 29.86625 118.5978125 30.75 118.1875 C34.4578827 116.23056191 36.64312738 115.07061787 38 111 C38.10003611 109.52815351 38.14611247 108.05229511 38.15821838 106.57710266 C38.1680072 105.67266418 38.17779602 104.76822571 38.18788147 103.83638 C38.19363693 102.84663681 38.1993924 101.85689362 38.20532227 100.8371582 C38.21522186 99.79308807 38.22512146 98.74901794 38.23532104 97.67330933 C38.26695585 94.21582318 38.2917014 90.75832329 38.31640625 87.30078125 C38.33697406 84.90609883 38.35797048 82.51142005 38.37937927 80.116745 C38.43461778 73.80881703 38.48401926 67.5008562 38.53222656 61.19287109 C38.58242856 54.75810821 38.63812142 48.32339315 38.69335938 41.88867188 C38.80096273 29.25915569 38.90258929 16.6295987 39 4 C36.93643105 4.2840051 34.8741715 4.57753352 32.8125 4.875 C31.66394531 5.03742188 30.51539063 5.19984375 29.33203125 5.3671875 C23.55531247 6.46429001 18.90722294 8.5076853 15 13 C9.06024767 22.12068568 6.6177301 32.57541109 4 43 C2.68 43 1.36 43 0 43 C0 28.81 0 14.62 0 0 Z " fill="#C9F8F9" transform="translate(130,95)"/>
<path d="M0 0 C0.89485107 0.00563965 1.78970215 0.0112793 2.71166992 0.01708984 C3.73031128 0.02796631 3.73031128 0.02796631 4.76953125 0.0390625 C4.8396451 13.90373868 4.89233151 27.76838732 4.92496777 41.63320446 C4.94063068 48.07104321 4.96188071 54.50876295 4.99584961 60.9465332 C5.02842024 67.15810124 5.04637955 73.36955472 5.05416298 79.58120155 C5.05971058 81.95230221 5.07054351 84.32339652 5.08672142 86.69444847 C5.10846472 90.01282732 5.11149941 93.33073142 5.11010742 96.64916992 C5.12089325 97.63172256 5.13167908 98.61427521 5.14279175 99.62660217 C5.1041081 108.13615355 5.1041081 108.13615355 1.76953125 112.0390625 C-3.44668883 115.00514843 -7.40870335 115.34547121 -13.23046875 115.0390625 C-13.23046875 116.0290625 -13.23046875 117.0190625 -13.23046875 118.0390625 C6.89953125 118.0390625 27.02953125 118.0390625 47.76953125 118.0390625 C47.76953125 117.0490625 47.76953125 116.0590625 47.76953125 115.0390625 C46.77953125 115.1628125 45.78953125 115.2865625 44.76953125 115.4140625 C40.43226939 115.37611969 37.81139434 113.66077852 34.47096252 111.01781845 C31.24199503 107.26254562 31.72459136 103.09496366 31.86132812 98.35205078 C31.86015991 97.28803543 31.8589917 96.22402008 31.85778809 95.12776184 C31.8633498 91.62029247 31.92551772 88.11624819 31.98828125 84.609375 C32.00320642 82.17416237 32.01459213 79.73892568 32.02258301 77.30368042 C32.05309425 70.90138148 32.13165246 64.50053994 32.22021484 58.09881592 C32.30212585 51.56347367 32.33860596 45.02789537 32.37890625 38.4921875 C32.46464435 25.67385821 32.59959949 12.85653795 32.76953125 0.0390625 C34.37845402 0.02014008 35.98744077 0.00660187 37.59643555 -0.00463867 C38.94042671 -0.01680672 38.94042671 -0.01680672 40.31156921 -0.02922058 C45.91911405 0.12655906 50.8087446 2.85550182 54.83203125 6.6640625 C56.76953125 9.0390625 56.76953125 9.0390625 56.76953125 11.0390625 C57.42953125 11.0390625 58.08953125 11.0390625 58.76953125 11.0390625 C58.76953125 12.3590625 58.76953125 13.6790625 58.76953125 15.0390625 C59.42953125 15.0390625 60.08953125 15.0390625 60.76953125 15.0390625 C60.76953125 16.3590625 60.76953125 17.6790625 60.76953125 19.0390625 C61.42953125 19.0390625 62.08953125 19.0390625 62.76953125 19.0390625 C63.44622074 21.24434522 64.11046623 23.45344859 64.76953125 25.6640625 C65.14078125 26.89382812 65.51203125 28.12359375 65.89453125 29.390625 C66.70680844 32.77753076 66.93994138 35.57760679 66.76953125 39.0390625 C68.74953125 39.5340625 68.74953125 39.5340625 70.76953125 40.0390625 C69.28453125 40.5340625 69.28453125 40.5340625 67.76953125 41.0390625 C65.76953125 40.0390625 65.76953125 40.0390625 65.0234375 38.0703125 C64.79527344 37.235 64.56710938 36.3996875 64.33203125 35.5390625 C63.34497437 32.05943773 62.33719931 28.60023003 61.20703125 25.1640625 C60.97886719 24.46539062 60.75070313 23.76671875 60.515625 23.046875 C59.73886782 20.95654416 58.80144971 19.01432272 57.76953125 17.0390625 C57.10953125 17.0390625 56.44953125 17.0390625 55.76953125 17.0390625 C54.76953125 14.0390625 54.76953125 14.0390625 55.76953125 11.0390625 C54.77953125 10.7090625 53.78953125 10.3790625 52.76953125 10.0390625 C52.76953125 9.0490625 52.76953125 8.0590625 52.76953125 7.0390625 C51.80015625 6.7296875 50.83078125 6.4203125 49.83203125 6.1015625 C46.76953125 5.0390625 46.76953125 5.0390625 45.76953125 4.0390625 C42.46953125 4.0390625 39.16953125 4.0390625 35.76953125 4.0390625 C35.43953125 38.6890625 35.10953125 73.3390625 34.76953125 109.0390625 C40.75952543 110.77548556 40.75952543 110.77548556 46.70703125 111.6640625 C47.86525391 111.77621094 47.86525391 111.77621094 49.046875 111.890625 C49.61535156 111.93960938 50.18382812 111.98859375 50.76953125 112.0390625 C52.89453125 118.7890625 52.89453125 118.7890625 51.76953125 121.0390625 C47.29748443 121.96722316 43.44226316 122.07205048 38.91796875 121.5625 C28.87517042 120.66556125 18.77999967 120.93446272 8.70703125 120.9765625 C6.6191417 120.98158809 4.53125098 120.98614912 2.44335938 120.99023438 C-2.11847567 120.99999351 -6.68027176 121.01414674 -11.24208069 121.03233337 C-12.9048687 121.0379606 -14.56767122 121.0390625 -16.23046875 121.0390625 C-16.91796875 119.2890625 -16.91796875 119.2890625 -17.23046875 117.0390625 C-16.0625 114.9375 -16.0625 114.9375 -14.23046875 113.0390625 C-11.85546875 112.5 -11.85546875 112.5 -9.23046875 112.4140625 C-5.51967297 112.27049004 -4.44044288 112.17904525 -1.23046875 110.0390625 C-0.01165665 106.48234071 -0.01165665 106.48234071 0.76953125 103.0390625 C1.42953125 103.0390625 2.08953125 103.0390625 2.76953125 103.0390625 C2.76953125 70.0390625 2.76953125 37.0390625 2.76953125 3.0390625 C-5.87830576 3.3674154 -5.87830576 3.3674154 -12.23046875 7.0390625 C-12.93171875 7.9259375 -13.63296875 8.8128125 -14.35546875 9.7265625 C-14.97421875 10.4896875 -15.59296875 11.2528125 -16.23046875 12.0390625 C-17.22046875 12.0390625 -18.21046875 12.0390625 -19.23046875 12.0390625 C-19.49859375 12.8434375 -19.76671875 13.6478125 -20.04296875 14.4765625 C-20.65533966 16.31367524 -21.26832092 18.15060321 -21.890625 19.984375 C-24.13422494 26.62935405 -26.18767958 33.33000365 -28.23046875 40.0390625 C-30.70546875 40.5340625 -30.70546875 40.5340625 -33.23046875 41.0390625 C-33.23046875 40.3790625 -33.23046875 39.7190625 -33.23046875 39.0390625 C-32.24046875 39.0390625 -31.25046875 39.0390625 -30.23046875 39.0390625 C-30.12089844 38.43320313 -30.01132813 37.82734375 -29.8984375 37.203125 C-27.56766783 24.88604953 -24.54664648 11.10871571 -14.00390625 3.12109375 C-9.46883287 0.35409964 -5.18039724 -0.0424275 0 0 Z " fill="#7ADCDE" transform="translate(164.23046875,98.9609375)"/>
<path d="M0 0 C8.58 0 17.16 0 26 0 C26.33 0.66 26.66 1.32 27 2 C25.8553125 2.061875 25.8553125 2.061875 24.6875 2.125 C21.72913496 2.74808853 21.72913496 2.74808853 20.5 5.75 C20.005 6.8225 19.51 7.895 19 9 C18.21625 9.7425 17.4325 10.485 16.625 11.25 C8.75580359 19.49392005 6.7426966 31.2859767 4 42 C2.68 42 1.36 42 0 42 C0 28.14 0 14.28 0 0 Z " fill="#F9FDFC" transform="translate(130,96)"/>
<path d="M0 0 C9.24 0 18.48 0 28 0 C28 12.21 28 24.42 28 37 C27.01 37 26.02 37 25 37 C24.32815382 34.89748139 23.66269032 32.79292237 23 30.6875 C22.443125 28.92986328 22.443125 28.92986328 21.875 27.13671875 C21 24 21 24 21 21 C20.34 21 19.68 21 19 21 C19 19.68 19 18.36 19 17 C18.34 17 17.68 17 17 17 C17 15.68 17 14.36 17 13 C16.34 13 15.68 13 15 13 C13.52734375 11.57421875 13.52734375 11.57421875 11.9375 9.6875 C11.41027344 9.07261719 10.88304687 8.45773438 10.33984375 7.82421875 C9 6 9 6 8 3 C6.12612784 2.19787372 6.12612784 2.19787372 3.9375 1.8125 C3.20402344 1.65394531 2.47054687 1.49539062 1.71484375 1.33203125 C1.14894531 1.22246094 0.58304688 1.11289063 0 1 C0 0.67 0 0.34 0 0 Z " fill="#F9FDFC" transform="translate(206,97)"/>
<path d="M0 0 C0 0.66 0 1.32 0 2 C47.52 1.505 47.52 1.505 96 1 C96 1.66 96 2.32 96 3 C97.65 3 99.3 3 101 3 C102.19825444 6.59476331 101.74035745 8.4574223 101.125 12.1875 C99.47012949 23.04706621 99.33506937 34.03669374 99 45 C98.67 45 98.34 45 98 45 C98 31.47 98 17.94 98 4 C63.02 4 28.04 4 -8 4 C-8 17.53 -8 31.06 -8 45 C-8.33 45 -8.66 45 -9 45 C-9.88837287 35.54238446 -10.12493919 26.18306055 -10.0625 16.6875 C-10.05746607 15.34961108 -10.05290657 14.0117203 -10.04882812 12.67382812 C-10.03718676 9.44916915 -10.02083703 6.2246104 -10 3 C-8.70990357 2.49596232 -7.41786211 1.99690074 -6.125 1.5 C-5.04605469 1.08234375 -5.04605469 1.08234375 -3.9453125 0.65625 C-2 0 -2 0 0 0 Z " fill="#84DDE1" transform="translate(138,91)"/>
<path d="M0 0 C14.56097561 0 14.56097561 0 20.9375 5.5625 C23 8 23 8 23 10 C23.66 10 24.32 10 25 10 C25 11.32 25 12.64 25 14 C25.66 14 26.32 14 27 14 C27 15.32 27 16.64 27 18 C27.66 18 28.32 18 29 18 C29.67668949 20.20528272 30.34093498 22.41438609 31 24.625 C31.37125 25.85476562 31.7425 27.08453125 32.125 28.3515625 C32.93727719 31.73846826 33.17041013 34.53854429 33 38 C34.32 38.33 35.64 38.66 37 39 C36.01 39.33 35.02 39.66 34 40 C32 39 32 39 31.25390625 37.03125 C31.02574219 36.1959375 30.79757813 35.360625 30.5625 34.5 C29.57544312 31.02037523 28.56766806 27.56116753 27.4375 24.125 C27.20933594 23.42632812 26.98117188 22.72765625 26.74609375 22.0078125 C25.96933657 19.91748166 25.03191846 17.97526022 24 16 C23.34 16 22.68 16 22 16 C21 13 21 13 22 10 C21.01 9.67 20.02 9.34 19 9 C19 8.01 19 7.02 19 6 C18.030625 5.690625 17.06125 5.38125 16.0625 5.0625 C13 4 13 4 12 3 C8.7 3 5.4 3 2 3 C1.67 36.99 1.34 70.98 1 106 C0.67 106 0.34 106 0 106 C0 71.02 0 36.04 0 0 Z " fill="#69DCDA" transform="translate(198,100)"/>
<path d="M0 0 C3.3 0 6.6 0 10 0 C10 0.33 10 0.66 10 1 C7.03 1 4.06 1 1 1 C1.33 36.64 1.66 72.28 2 109 C4.31 109.66 6.62 110.32 9 111 C9 111.66 9 112.32 9 113 C9.928125 112.95875 10.85625 112.9175 11.8125 112.875 C15 113 15 113 18 115 C18 116.32 18 117.64 18 119 C-3.45 119 -24.9 119 -47 119 C-46.67 117.68 -46.34 116.36 -46 115 C-46 115.99 -46 116.98 -46 118 C-25.87 118 -5.74 118 15 118 C15 117.01 15 116.02 15 115 C14.01 115.12375 13.02 115.2475 12 115.375 C7.66273814 115.33705719 5.04186309 113.62171602 1.70143127 110.97875595 C-1.52753622 107.22348312 -1.04493989 103.05590116 -0.90820312 98.31298828 C-0.90937134 97.24897293 -0.91053955 96.18495758 -0.91174316 95.08869934 C-0.90618145 91.58122997 -0.84401353 88.07718569 -0.78125 84.5703125 C-0.76632483 82.13509987 -0.75493912 79.69986318 -0.74694824 77.26461792 C-0.716437 70.86231898 -0.63787879 64.46147744 -0.54931641 58.05975342 C-0.4674054 51.52441117 -0.43092529 44.98883287 -0.390625 38.453125 C-0.30488677 25.63477715 -0.16838893 12.81750987 0 0 Z " fill="#84DEDD" transform="translate(197,99)"/>
<path d="M0 0 C0 0.66 0 1.32 0 2 C47.52 1.505 47.52 1.505 96 1 C96 1.66 96 2.32 96 3 C61.35 3 26.7 3 -9 3 C-9 2.67 -9 2.34 -9 2 C-2.25 0 -2.25 0 0 0 Z " fill="#6ADBDB" transform="translate(138,91)"/>
<path d="M0 0 C7.92 0 15.84 0 24 0 C24 0.33 24 0.66 24 1 C16.48040153 2.01960657 9.76083877 2 2 2 C2 13.88 2 25.76 2 38 C2.66 38 3.32 38 4 38 C4 36.02 4 34.04 4 32 C4.66 32 5.32 32 6 32 C5.34 35.3 4.68 38.6 4 42 C2.68 42 1.36 42 0 42 C0 28.14 0 14.28 0 0 Z " fill="#D3FAFB" transform="translate(130,96)"/>
<path d="M0 0 C3.36179774 1.44077046 5.59156268 3.24750021 8 6 C8 6.66 8 7.32 8 8 C8.66 8 9.32 8 10 8 C10 9.32 10 10.64 10 12 C10.66 12 11.32 12 12 12 C12 13.32 12 14.64 12 16 C12.66 16 13.32 16 14 16 C14.67668949 18.20528272 15.34093498 20.41438609 16 22.625 C16.37125 23.85476562 16.7425 25.08453125 17.125 26.3515625 C17.93727719 29.73846826 18.17041013 32.53854429 18 36 C19.32 36.33 20.64 36.66 22 37 C20.515 37.495 20.515 37.495 19 38 C17 37 17 37 16.25390625 35.03125 C15.91166016 33.77828125 15.91166016 33.77828125 15.5625 32.5 C14.57544312 29.02037523 13.56766806 25.56116753 12.4375 22.125 C12.20933594 21.42632812 11.98117188 20.72765625 11.74609375 20.0078125 C10.96933657 17.91748166 10.03191846 15.97526022 9 14 C8.34 14 7.68 14 7 14 C6 11 6 11 7 8 C6.01 7.67 5.02 7.34 4 7 C4 6.01 4 5.02 4 4 C3.01 3.67 2.02 3.34 1 3 C0.67 2.01 0.34 1.02 0 0 Z " fill="#7ADEDD" transform="translate(213,102)"/>
<path d="M0 0 C0.66 0.33 1.32 0.66 2 1 C0.71034824 2.37562854 -0.62689293 3.70766393 -2 5 C-2.66 5 -3.32 5 -4 5 C-4 5.66 -4 6.32 -4 7 C-4.66 7 -5.32 7 -6 7 C-6.1546875 8.0828125 -6.1546875 8.0828125 -6.3125 9.1875 C-7 12 -7 12 -8.34375 14 C-10.75946975 18.37564332 -11.88053956 23.00740345 -13.1875 27.8125 C-13.59645508 29.28106445 -13.59645508 29.28106445 -14.01367188 30.77929688 C-14.68242073 33.18444625 -15.34428838 35.59126994 -16 38 C-18.475 38.495 -18.475 38.495 -21 39 C-21 38.34 -21 37.68 -21 37 C-20.01 37 -19.02 37 -18 37 C-17.89042969 36.39414063 -17.78085938 35.78828125 -17.66796875 35.1640625 C-15.0797601 21.48653712 -11.66535986 8.6323663 0 0 Z " fill="#82DFE2" transform="translate(152,101)"/>
<path d="M0 0 C1.0209375 0.4640625 1.0209375 0.4640625 2.0625 0.9375 C5.36965912 2.13370649 8.51545878 2.59005397 12 3 C12 3.99 12 4.98 12 6 C-8.13 6 -28.26 6 -49 6 C-49 5.01 -49 4.02 -49 3 C-48.43835144 3.16265854 -47.87670288 3.32531708 -47.29803467 3.49290466 C-44.86415044 4.02997721 -42.7222102 4.120221 -40.23144531 4.11352539 C-39.29077209 4.11344986 -38.35009888 4.11337433 -37.38092041 4.11329651 C-36.37349792 4.10813522 -35.36607544 4.10297394 -34.328125 4.09765625 C-32.77179352 4.09553383 -32.77179352 4.09553383 -31.184021 4.09336853 C-27.87265124 4.08777447 -24.56134929 4.07522303 -21.25 4.0625 C-19.00390723 4.05748423 -16.75781339 4.05292146 -14.51171875 4.04882812 C-9.0077894 4.03780699 -3.50389954 4.02107474 2 4 C1.34 2.68 0.68 1.36 0 0 Z " fill="#CCFEFE" transform="translate(200,211)"/>
<path d="M0 0 C2.97 0 5.94 0 9 0 C9.495 2.475 9.495 2.475 10 5 C-11.45 5 -32.9 5 -55 5 C-54.67 3.68 -54.34 2.36 -54 1 C-54 1.99 -54 2.98 -54 4 C-33.87 4 -13.74 4 7 4 C7 3.01 7 2.02 7 1 C4.69 1 2.38 1 0 1 C0 0.67 0 0.34 0 0 Z " fill="#9CE9EA" transform="translate(205,213)"/>
<path d="M0 0 C1.32 0.33 2.64 0.66 4 1 C3.86722656 1.94875 3.73445312 2.8975 3.59765625 3.875 C1.92112504 16.55356917 1.39686059 29.22463808 1 42 C0.67 42 0.34 42 0 42 C0 28.14 0 14.28 0 0 Z " fill="#77DCDA" transform="translate(236,94)"/>
<path d="M0 0 C2.31 0.66 4.62 1.32 7 2 C7 3.65 7 5.3 7 7 C7.66 7 8.32 7 9 7 C9 8.32 9 9.64 9 11 C9.66 11 10.32 11 11 11 C15.05146765 17.66531774 16.15493203 22.09846645 16 30 C14.30566082 26.9530371 13.50532888 24.17178534 12.875 20.75 C12.70742187 19.85796875 12.53984375 18.9659375 12.3671875 18.046875 C12.18542969 17.03367187 12.18542969 17.03367187 12 16 C11.34 16 10.68 16 10 16 C10 14.68 10 13.36 10 12 C9.34 12 8.68 12 8 12 C8 10.68 8 9.36 8 8 C7.34 8 6.68 8 6 8 C4.4921875 6.25 4.4921875 6.25 2.875 4 C2.33617187 3.2575 1.79734375 2.515 1.2421875 1.75 C0.62730469 0.88375 0.62730469 0.88375 0 0 Z " fill="#CAF9F9" transform="translate(215,102)"/>
<path d="M0 0 C0.99 0.33 1.98 0.66 3 1 C2.24074219 1.54140625 1.48148438 2.0828125 0.69921875 2.640625 C-5.57771196 8.12726197 -8.45695573 16.9761698 -10 25 C-10.33 25 -10.66 25 -11 25 C-11.56131481 18.54487966 -9.63463787 13.84560277 -7 8 C-6.34 8 -5.68 8 -5 8 C-4.9175 7.236875 -4.835 6.47375 -4.75 5.6875 C-4 3 -4 3 -2.125 1.125 C-1.42375 0.75375 -0.7225 0.3825 0 0 Z " fill="#DCFCFD" transform="translate(147,103)"/>
<path d="M0 0 C2.97 0 5.94 0 9 0 C11.125 6.75 11.125 6.75 10 9 C4.64991422 10.01467144 0.33098784 9.99956022 -5 9 C-5 8.67 -5 8.34 -5 8 C-0.38 7.67 4.24 7.34 9 7 C8.67 5.68 8.34 4.36 8 3 C5.36 2.34 2.72 1.68 0 1 C0 0.67 0 0.34 0 0 Z " fill="#6ADEDD" transform="translate(206,211)"/>
<path d="M0 0 C0.66 0.33 1.32 0.66 2 1 C0.71034824 2.37562854 -0.62689293 3.70766393 -2 5 C-2.66 5 -3.32 5 -4 5 C-4 5.66 -4 6.32 -4 7 C-4.66 7 -5.32 7 -6 7 C-6.103125 7.721875 -6.20625 8.44375 -6.3125 9.1875 C-7.06793947 12.27793421 -8.15531315 14.41743841 -10 17 C-10.66 17 -11.32 17 -12 17 C-9.8216585 9.37580473 -6.14590034 4.74910481 0 0 Z " fill="#89E0E2" transform="translate(152,101)"/>
<path d="M0 0 C1.17175781 0.04640625 2.34351563 0.0928125 3.55078125 0.140625 C5.32001953 0.19476563 5.32001953 0.19476563 7.125 0.25 C8.48044922 0.31960937 8.48044922 0.31960937 9.86328125 0.390625 C6.80081378 2.17472302 4.64248852 2.61942521 1.11328125 2.515625 C0.3140625 2.49757812 -0.48515625 2.47953125 -1.30859375 2.4609375 C-1.911875 2.43773437 -2.51515625 2.41453125 -3.13671875 2.390625 C-3.13671875 3.710625 -3.13671875 5.030625 -3.13671875 6.390625 C-2.47671875 6.720625 -1.81671875 7.050625 -1.13671875 7.390625 C-2.12671875 8.050625 -3.11671875 8.710625 -4.13671875 9.390625 C-5.32421875 7.140625 -5.32421875 7.140625 -6.13671875 4.390625 C-4.54374916 1.0598704 -3.70867299 0.46185218 0 0 Z " fill="#7ADFDD" transform="translate(153.13671875,211.609375)"/>
<path d="M0 0 C0.680625 0.309375 1.36125 0.61875 2.0625 0.9375 C5.36965912 2.13370649 8.51545878 2.59005397 12 3 C12 3.99 12 4.98 12 6 C4.54148472 6.36681223 4.54148472 6.36681223 2.0625 4.6875 C1 3 1 3 0 0 Z " fill="#D9FCFC" transform="translate(200,211)"/>
<path d="M0 0 C0.33 0 0.66 0 1 0 C1.05422947 1.4370809 1.09289723 2.87475462 1.125 4.3125 C1.14820313 5.11300781 1.17140625 5.91351563 1.1953125 6.73828125 C1 9 1 9 -1 12 C-1.66 12 -2.32 12 -3 12 C-3 12.66 -3 13.32 -3 14 C-5.31 14 -7.62 14 -10 14 C-9.4225 13.731875 -8.845 13.46375 -8.25 13.1875 C-7.5075 12.795625 -6.765 12.40375 -6 12 C-5.29875 11.649375 -4.5975 11.29875 -3.875 10.9375 C-0.91707637 7.88097891 -0.65375267 4.10315822 0 0 Z " fill="#D4FCFB" transform="translate(169,200)"/>
<path d="M0 0 C4.97628187 5.61838276 5.14422969 9.64428578 5 17 C3.42470031 14.04802536 2.33195245 11.14184078 1.375 7.9375 C1.11460937 7.08027344 0.85421875 6.22304687 0.5859375 5.33984375 C0 3 0 3 0 0 Z " fill="#DBFCFD" transform="translate(226,115)"/>
<path d="M0 0 C6.40629424 -0.20852314 11.92972642 -0.1583195 18 2 C18 2.66 18 3.32 18 4 C12.25 3.125 12.25 3.125 10 2 C8.29636178 1.77377919 6.58671299 1.59111527 4.875 1.4375 C3.96492187 1.35371094 3.05484375 1.26992187 2.1171875 1.18359375 C1.41851562 1.12300781 0.71984375 1.06242187 0 1 C0 0.67 0 0.34 0 0 Z " fill="#CAF9F9" transform="translate(197,98)"/>
<path d="M0 0 C1.32 0.33 2.64 0.66 4 1 C3.34 6.61 2.68 12.22 2 18 C1.67 18 1.34 18 1 18 C0.67 12.06 0.34 6.12 0 0 Z " fill="#68DCDD" transform="translate(236,94)"/>
<path d="M0 0 C2.31 0.66 4.62 1.32 7 2 C7 2.66 7 3.32 7 4 C8.98 4 10.96 4 13 4 C13 4.33 13 4.66 13 5 C4.2404908 5.44539877 4.2404908 5.44539877 0 2 C0 1.34 0 0.68 0 0 Z " fill="#78DBD7" transform="translate(199,208)"/>
<path d="M0 0 C0.93065133 2.60582371 1.14917407 3.64198224 0.0625 6.25 C-0.4634375 7.11625 -0.4634375 7.11625 -1 8 C-2.32 8 -3.64 8 -5 8 C-5 7.34 -5 6.68 -5 6 C-4.01 6 -3.02 6 -2 6 C-1.34 4.02 -0.68 2.04 0 0 Z " fill="#72D9DC" transform="translate(136,132)"/>
<path d="M0 0 C2.97 0 5.94 0 9 0 C9.33 1.32 9.66 2.64 10 4 C9.01 4 8.02 4 7 4 C7 3.01 7 2.02 7 1 C4.69 1 2.38 1 0 1 C0 0.67 0 0.34 0 0 Z " fill="#AFF4F3" transform="translate(205,213)"/>
</svg>
