<?xml version="1.0" encoding="UTF-8"?>
<!DOCTYPE svg PUBLIC "-//W3C//DTD SVG 1.1//EN" "http://www.w3.org/Graphics/SVG/1.1/DTD/svg11.dtd">
<svg xmlns="http://www.w3.org/2000/svg" version="1.1" width="222px" height="80px" style="shape-rendering:geometricPrecision; text-rendering:geometricPrecision; image-rendering:optimizeQuality; fill-rule:evenodd; clip-rule:evenodd" xmlns:xlink="http://www.w3.org/1999/xlink">
<g><path style="opacity:1" fill="#fdfdfd" d="M -0.5,-0.5 C 73.5,-0.5 147.5,-0.5 221.5,-0.5C 221.5,26.1667 221.5,52.8333 221.5,79.5C 147.5,79.5 73.5,79.5 -0.5,79.5C -0.5,52.8333 -0.5,26.1667 -0.5,-0.5 Z"/></g>
<g><path style="opacity:1" fill="#279fb8" d="M 31.5,26.5 C 38.2218,27.0555 44.8885,27.0555 51.5,26.5C 52.754,28.2592 52.4206,29.7592 50.5,31C 47.1832,31.4983 43.8499,31.665 40.5,31.5C 39.1123,39.5036 37.6123,47.5036 36,55.5C 33.8615,56.7691 31.6948,56.7691 29.5,55.5C 31.6439,47.2585 33.3105,38.9252 34.5,30.5C 28.7921,31.1991 26.4588,34.5324 27.5,40.5C 26.1779,40.67 25.0113,40.3366 24,39.5C 22.9177,33.0856 25.4177,28.7523 31.5,26.5 Z"/></g>
<g><path style="opacity:1" fill="#131313" d="M 83.5,28.5 C 88.1585,28.0146 89.4919,29.848 87.5,34C 83.2662,34.267 81.9329,32.4336 83.5,28.5 Z"/></g>
<g><path style="opacity:1" fill="#1a1a1a" d="M 114.5,28.5 C 116.167,28.5 117.833,28.5 119.5,28.5C 120.322,34.2093 118.489,35.5427 114,32.5C 113.421,31.0715 113.588,29.7382 114.5,28.5 Z"/></g>
<g><path style="opacity:1" fill="#111111" d="M 99.5,28.5 C 101.288,28.2148 102.955,28.5481 104.5,29.5C 102.135,36.989 100.802,44.6556 100.5,52.5C 102.912,52.756 104.579,51.756 105.5,49.5C 105.759,53.9135 103.426,56.2468 98.5,56.5C 97.0055,56.2908 95.8388,55.6241 95,54.5C 95.0965,45.5877 96.5965,36.921 99.5,28.5 Z"/></g>
<g><path style="opacity:1" fill="#141414" d="M 155.5,28.5 C 157.527,28.3379 159.527,28.5045 161.5,29C 159.658,31.696 159.325,34.5293 160.5,37.5C 163.291,35.9602 165.791,36.2936 168,38.5C 167.63,43.1381 167.13,47.8047 166.5,52.5C 168.912,52.756 170.579,51.756 171.5,49.5C 172.116,52.124 171.116,54.2907 168.5,56C 163.859,57.6513 161.193,56.1513 160.5,51.5C 161.589,47.9032 162.255,44.2366 162.5,40.5C 160.61,40.2965 159.11,40.9632 158,42.5C 156.714,47.0959 155.881,51.7626 155.5,56.5C 153.396,56.7989 151.396,56.4656 149.5,55.5C 151.512,46.4725 153.512,37.4725 155.5,28.5 Z"/></g>
<g><path style="opacity:1" fill="#101010" d="M 179.5,30.5 C 181.604,30.2011 183.604,30.5344 185.5,31.5C 183.976,33.7924 184.309,35.7924 186.5,37.5C 185.675,38.3857 184.675,38.719 183.5,38.5C 182.513,43.1173 181.846,47.784 181.5,52.5C 183.981,52.6766 185.814,51.6766 187,49.5C 186.338,54.9369 183.172,57.1036 177.5,56C 177,55.5 176.5,55 176,54.5C 175.663,49.1776 176.497,44.0109 178.5,39C 178.355,38.228 178.022,37.5613 177.5,37C 179.25,35.2458 179.917,33.0792 179.5,30.5 Z"/></g>
<g><path style="opacity:1" fill="#111111" d="M 69.5,35.5 C 70.8221,35.33 71.9887,35.6634 73,36.5C 73.9456,42.6713 72.6123,48.338 69,53.5C 64.9247,57.4101 60.9247,57.4101 57,53.5C 54.2935,56.9779 51.2935,57.3112 48,54.5C 47.8963,48.7785 48.563,43.1119 50,37.5C 51.6995,36.5939 53.5328,36.2606 55.5,36.5C 54.623,41.8012 53.9564,47.1345 53.5,52.5C 56.0495,52.4392 57.5495,51.1059 58,48.5C 58.6438,44.7794 59.4772,41.1128 60.5,37.5C 62.0453,36.5481 63.712,36.2148 65.5,36.5C 64.6161,41.804 63.9494,47.1374 63.5,52.5C 65.3904,52.7035 66.8904,52.0368 68,50.5C 69.7594,46.9913 70.926,43.3246 71.5,39.5C 70.5,39.5 69.5,39.5 68.5,39.5C 68.4326,38.0413 68.7659,36.7079 69.5,35.5 Z"/></g>
<g><path style="opacity:1" fill="#0e0e0e" d="M 81.5,36.5 C 83.5273,36.3379 85.5273,36.5045 87.5,37C 85.7911,42.007 84.7911,47.1736 84.5,52.5C 86.9806,52.6766 88.8139,51.6766 90,49.5C 89.3385,54.9369 86.1718,57.1036 80.5,56C 80,55.5 79.5,55 79,54.5C 79.0691,48.4152 79.9024,42.4152 81.5,36.5 Z"/></g>
<g><path style="opacity:1" fill="#0b0b0b" d="M 112.5,36.5 C 114.604,36.2011 116.604,36.5344 118.5,37.5C 117.023,42.4081 116.023,47.4081 115.5,52.5C 118.429,52.6047 120.763,51.7713 122.5,50C 120.315,55.5575 116.482,57.3908 111,55.5C 110.644,49.109 111.144,42.7756 112.5,36.5 Z"/></g>
<g><path style="opacity:1" fill="#0e0f0f" d="M 137.5,37.5 C 139.764,36.7814 142.097,36.448 144.5,36.5C 143.502,41.8216 142.502,47.155 141.5,52.5C 141.833,53.1667 142.167,53.8333 142.5,54.5C 144.063,53.0552 145.396,51.3885 146.5,49.5C 147.408,50.79 147.241,52.1233 146,53.5C 144.255,54.9557 142.422,56.289 140.5,57.5C 140.294,64.2152 136.961,67.0486 130.5,66C 128.675,64.5341 128.175,62.7008 129,60.5C 131.037,58.5643 133.203,56.8976 135.5,55.5C 133.011,56.5592 130.177,56.5592 127,55.5C 124.255,48.8608 125.421,43.0275 130.5,38C 132.895,36.4022 135.228,36.2355 137.5,37.5 Z"/></g>
<g><path style="opacity:1" fill="#038ea8" d="M 137.5,37.5 C 138.355,38.5307 139.022,39.6974 139.5,41C 137.948,44.7065 136.781,48.5398 136,52.5C 131.917,54.5717 129.75,53.405 129.5,49C 129.844,44.9665 131.178,41.2999 133.5,38C 134.793,37.51 136.127,37.3433 137.5,37.5 Z"/></g>
<g><path style="opacity:1" fill="#cecece" d="M 133.5,58.5 C 134.87,60.7073 134.203,62.374 131.5,63.5C 130.417,62.635 130.251,61.635 131,60.5C 131.995,59.9341 132.828,59.2674 133.5,58.5 Z"/></g>
</svg>
